<?xml version="1.0" encoding="UTF-8" standalone="no"?>
<!-- Created with Inkscape (http://www.inkscape.org/) -->

<svg
   xmlns:dc="http://purl.org/dc/elements/1.1/"
   xmlns:cc="http://creativecommons.org/ns#"
   xmlns:rdf="http://www.w3.org/1999/02/22-rdf-syntax-ns#"
   xmlns:svg="http://www.w3.org/2000/svg"
   xmlns="http://www.w3.org/2000/svg"
   xmlns:sodipodi="http://sodipodi.sourceforge.net/DTD/sodipodi-0.dtd"
   xmlns:inkscape="http://www.inkscape.org/namespaces/inkscape"
   version="1.1"
   id="svg3848"
   width="1024"
   height="1024"
   viewBox="0 0 1024 1024"
   sodipodi:docname="black_paper.svg"
   inkscape:version="0.92.2 (5c3e80d, 2017-08-06)">
  <metadata
     id="metadata3854">
    <rdf:RDF>
      <cc:Work
         rdf:about="">
        <dc:format>image/svg+xml</dc:format>
        <dc:type
           rdf:resource="http://purl.org/dc/dcmitype/StillImage" />
        <dc:title></dc:title>
      </cc:Work>
    </rdf:RDF>
  </metadata>
  <defs
     id="defs3852" />
  <sodipodi:namedview
     pagecolor="#ffffff"
     bordercolor="#666666"
     borderopacity="1"
     objecttolerance="10"
     gridtolerance="10"
     guidetolerance="10"
     inkscape:pageopacity="0"
     inkscape:pageshadow="2"
     inkscape:window-width="1366"
     inkscape:window-height="705"
     id="namedview3850"
     showgrid="false"
     inkscape:zoom="0.082000909"
     inkscape:cx="-907.68845"
     inkscape:cy="461.86312"
     inkscape:window-x="-8"
     inkscape:window-y="-8"
     inkscape:window-maximized="1"
     inkscape:current-layer="layer3" />
  <g
     inkscape:groupmode="layer"
     id="layer1"
     inkscape:label="Layer 1"
     style="display:inline">
    <path
       style="fill:#7f7f7f;fill-opacity:1"
       d="M 480.57124,1024.4329 C 283.42448,1011.8269 110.10242,885.33232 37.45023,701.03263 -43.79769,494.92783 17.29764,259.13687 188.43743,118.31354 296.8657,29.092739 436.80308,-11.591952 576.35518,5.5322877 762.331,28.353122 921.1814,151.43039 990.0108,326.03263 1071.2587,532.13743 1010.1634,767.92839 839.0236,908.75172 738.782,991.23609 610.22823,1032.7235 480.57124,1024.4329 Z"
       id="path3858"
       inkscape:connector-curvature="0" />
  </g>
  <g
     inkscape:groupmode="layer"
     id="layer2"
     inkscape:label="Layer 2"
     style="display:inline">
    <path
       style="fill:#000000"
       d="M 479.1797,1025.9172 C 282.03294,1013.3112 108.71088,886.81664 36.058677,702.51695 -45.189243,496.41215 15.906097,260.62119 187.04589,119.79786 295.47416,30.577053 435.41154,-10.107638 574.96365,7.0166024 760.93945,29.837433 919.78985,152.91471 988.61925,327.51695 1069.8671,533.62175 1008.7718,769.41271 837.63205,910.23604 737.39045,992.7204 608.83665,1034.2078 479.1797,1025.9172 Z m 59.15925,-49.92575 c 7.975,-0.5531 21.925,-1.9285 31,-3.0563 100.6013,-12.503 194.6556,-58.12292 267.3943,-129.69647 51.056,-50.23819 90.7954,-114.3565 113.6766,-183.41378 13.3434,-40.27136 20.4245,-78.2807 23.112,-124.05795 2.4312,-41.41193 -2.7936,-91.32015 -14.1591,-135.25 -39.5312,-152.7958 -152.7942,-274.06207 -302.2158,-323.570867 -40.2714,-13.34336 -78.2807,-20.42449 -124.058,-23.11197 -41.41189,-2.43121 -91.32011,2.79361 -135.24996,14.1591 C 318.42927,88.538043 246.32601,129.34912 187.94472,186.79522 136.88869,237.03341 97.1493,301.15172 74.268117,370.209 c -13.34336,40.27136 -20.42449,78.2807 -23.11197,124.05795 -2.4312,41.41193 2.79361,91.32015 14.15911,135.25 42.341083,163.6565 168.907573,290.22188 332.523733,332.5208 45.86301,11.8568 97.20977,16.9563 140.49996,13.9537 z"
       id="path4416"
       inkscape:connector-curvature="0" />
  </g>
  <g
     inkscape:groupmode="layer"
     id="layer3"
     inkscape:label="Layer 3"
     style="display:inline">
    <path
       style="fill:#000000"
       d="m 277.16129,802.96758 c -19.7508,-5.17353 -35.4452,-21.65571 -39.6884,-41.68072 -2.1602,-10.19453 -2.1602,-488.37919 0,-498.57372 2.169,-10.23647 7.0377,-19.21296 14.5271,-26.78402 7.9465,-8.03318 15.3717,-12.36077 25.6817,-14.96794 7.7185,-1.95186 11.3656,-1.97849 235.829,-1.72185 l 227.9893,0.26067 7.216,2.63797 c 18.4337,6.73883 31.6825,22.08492 35.7849,41.44959 2.2109,10.4361 2.2058,486.38101 0,496.91244 -3.4093,16.23836 -13.9067,30.29195 -28.2383,37.80472 -13.5925,7.12529 3.5368,6.66461 -246.2573,6.62285 -219.1847,-0.0366 -225.7055,-0.0915 -232.8387,-1.95999 z M 712.49999,512 V 292.5 h -201.5 -201.5 l -0.2563,218.5 c -0.141,120.175 -0.042,219.0636 0.2195,219.75244 0.3795,0.99868 41.2571,1.20129 201.7564,1 L 712.49999,731.5 Z m -329.5,128 v -18 h 128 128 v 18 18 h -128 -128 z m 0,-73 v -18 h 128 128 v 18 18 h -128 -128 z m 0,-73.5038 v -18.5038 l 127.75,0.2538 127.75,0.2538 0.2726,18.25 0.2725,18.25 h -128.0225 -128.0226 z m 0,-72.9962 V 402 h 128 128 v 18.5 18.5 h -128 -128 z"
       id="path4987"
       inkscape:connector-curvature="0" />
  </g>
</svg>
